<svg width="201" height="201" viewBox="0 0 201 201" fill="none" xmlns="http://www.w3.org/2000/svg">
<g filter="url(#filter0_d_284_85)">
<circle cx="101.775" cy="98.5456" r="94.0727" fill="#DDEAFF" stroke="black" stroke-width="1.5"/>
<path d="M63.336 120.784C66.4611 117.034 69.5863 116.409 72.0864 115.784C76.8782 119.951 86.2119 129.16 85.2119 132.66C83.9618 137.035 77.0866 142.66 74.5864 143.91C73.5864 148.411 70.4196 149.119 68.9612 148.911C68.3362 149.536 66.3361 150.661 63.336 150.161C62.711 152.661 60.8359 152.036 58.9608 152.661C58.9608 154.536 54.5856 155.786 50.8355 155.786C47.8353 155.786 45.4186 157.453 44.5852 158.286C44.5852 157.453 44.7102 155.411 45.2102 153.911C45.8353 150.161 45.8353 148.911 47.0853 145.785C45.0852 142.285 47.9187 139.744 49.5854 138.91C49.7938 137.452 50.8355 134.16 53.3356 132.66C53.3356 129.66 56.2524 127.243 57.7108 126.41C58.3358 124.743 60.3359 121.284 63.336 120.784Z" fill="#FFB885"/>
<path d="M157.559 44.063C153.574 40.0783 136.972 42.7348 131.659 45.3912C125.239 48.4904 111.204 55.6185 106.423 59.3375C101.641 63.0565 94.69 71.5128 91.8122 75.2761C88.9344 77.2684 82.1162 81.7844 77.8659 83.9095C73.6156 86.0347 65.0264 84.795 61.2631 83.9095C60.1563 85.9019 57.0128 90.8163 53.2938 94.5353C48.645 99.1841 43.3321 107.153 40.0116 115.123C43.7306 114.06 56.6143 114.68 62.5913 115.123L69.2324 105.825H77.8659V111.802L74.5453 109.146L69.2324 113.794L78.53 125.084C78.7513 125.748 78.2643 128.006 74.5453 131.725C70.8263 135.444 66.3546 143.015 64.5837 146.336L66.576 148.992L77.8659 139.031L85.8352 131.725L95.1327 123.756C95.3541 124.42 95.664 126.413 95.1327 129.069C94.6014 131.725 89.5985 134.161 87.1634 135.046V158.29C90.0412 156.74 96.0625 153.243 97.125 151.649C98.1876 150.055 109.964 141.687 115.72 137.702C115.499 136.596 115.189 132.655 115.72 125.748C116.384 117.115 120.369 114.459 125.018 110.474C130.995 106.489 138.3 97.8559 144.941 89.8865C151.582 81.9172 157.559 71.9556 158.887 63.9863L158.887 63.9861C160.215 56.0169 161.544 48.0476 157.559 44.063Z" fill="#86B4FF"/>
<path d="M77.2683 111.589C78.4118 102.545 84.6903 80.5909 100.657 65.1232C118.917 47.4338 141.092 39.9249 155.959 42.5963C158.395 43.0341 160.045 45.2103 160.143 47.684C160.889 66.5474 156.156 79.2779 133.713 103.169C124.045 113.46 102.84 122.815 96.291 122.815" stroke="black" stroke-width="1.5"/>
<ellipse cx="120.561" cy="64.8779" rx="12.1181" ry="8.71698" transform="rotate(-28.7898 120.561 64.8779)" fill="#040A0D"/>
<path d="M134.859 57.7266C136.45 60.2977 136.479 63.5797 135.116 66.8686C133.753 70.1562 131.015 73.3894 127.202 75.7494C123.388 78.1094 119.273 79.1168 115.723 78.87C112.171 78.623 109.246 77.1327 107.655 74.5615C106.064 71.9904 106.035 68.7084 107.399 65.4195C108.762 62.1319 111.5 58.8987 115.313 56.5387C119.127 54.1787 123.242 53.1713 126.792 53.4181C130.344 53.6651 133.268 55.1554 134.859 57.7266Z" stroke="#040A0D" stroke-width="1.5"/>
<path d="M133.401 44.8531C138.39 47.9716 150.116 57.3894 157.101 70.1128" stroke="black" stroke-width="1.5"/>
<path d="M94.4198 71.984C103.567 82.0671 123.359 103.231 129.347 107.223" stroke="black" stroke-width="1.5"/>
<path d="M123.11 111.9C118.432 115.643 115.626 120.944 115.626 129.052C115.626 133.044 115.626 136.121 115.626 137.16C108.141 143.501 91.9876 156.619 87.2475 158.366C87.497 152.628 87.3515 140.59 87.2475 135.289C89.6384 133.938 94.5448 130.798 95.0437 129.052C95.5427 127.306 95.2516 124.374 95.0437 123.127M111.884 100.674C107.829 104.52 98.973 114.395 95.9793 123.127C93.4845 124.624 75.6052 141.006 66.9774 149.01L64.4827 146.204L93.1727 120.944C95.7714 115.539 102.715 103.481 109.701 98.491C110.2 99.2395 111.364 100.258 111.884 100.674Z" stroke="black" stroke-width="1.5"/>
<path d="M109.7 98.491L86.6236 116.578C82.7774 121.048 74.2744 131.173 71.0312 135.913C67.788 140.653 65.1061 144.748 64.1705 146.204" stroke="black" stroke-width="1.5"/>
<path d="M92.2368 74.7903C88.7025 77.8048 80.449 84.021 75.7089 84.7694C70.9688 85.5178 64.3784 84.4576 61.6757 83.8339C58.0375 87.9918 49.7632 97.8046 45.7715 103.792C41.7798 109.78 39.9503 114.187 39.5345 115.642C45.0439 115.019 57.4346 113.958 62.9231 114.707C65.6674 109.967 68.2245 106.911 69.1601 105.975H78.2037" stroke="black" stroke-width="1.5"/>
<path d="M84.4408 119.385L74.7735 108.782L69.1603 113.46C71.6551 116.682 77.0812 123.501 78.8276 124.998" stroke="black" stroke-width="1.5"/>
<path d="M71.3429 116.266C69.1599 115.954 64.4822 119.073 62.923 120.944C60.4282 120.632 57.9334 124.374 57.6216 126.557C56.0623 126.557 54.2952 130.3 53.8794 131.859C51.0728 132.171 49.5135 137.784 49.8254 139.343C45.4595 140.902 46.3951 144.021 47.0187 144.956C47.5177 145.705 46.603 147.867 46.3951 148.698C45.6674 149.946 44.9606 151.879 45.4595 153.376C45.9585 154.873 44.42 157.638 43.9003 158.366C44.9398 157.534 47.6935 155.559 50.4491 155.559C53.8794 155.559 57.6216 155.559 58.869 152.441C61.3637 152.441 62.923 152.129 63.8585 150.258C66.0415 150.57 68.2244 150.258 69.1599 149.322C72.9021 149.322 74.1495 145.58 74.4613 144.021C76.0206 143.397 84.7523 135.913 85.9997 131.235" stroke="black" stroke-width="1.5"/>
<circle cx="66.0415" cy="153.064" r="0.75" stroke="black" stroke-width="0.994782"/>
<circle cx="49.8256" cy="130.611" r="1.12109" stroke="black" stroke-width="1.5"/>
<circle cx="102.839" cy="76.9736" r="0.75" stroke="black" stroke-width="0.994782"/>
<circle cx="114.69" cy="88.8235" r="0.75" stroke="black" stroke-width="0.994782"/>
<circle cx="125.293" cy="100.05" r="0.75" stroke="black" stroke-width="0.994782"/>
<circle cx="152.735" cy="68.2416" r="0.75" stroke="black" stroke-width="0.994782"/>
<circle cx="145.251" cy="58.8863" r="0.75" stroke="black" stroke-width="0.994782"/>
<circle cx="136.519" cy="50.1546" r="0.75" stroke="black" stroke-width="0.994782"/>
<circle cx="96.6027" cy="71.3605" r="0.75" stroke="black" stroke-width="0.994782"/>
<circle cx="47.6436" cy="137.161" r="0.936723" fill="black"/>
<path d="M76.9565 110.965L71.3433 115.954M81.3224 115.954L75.3973 121.256" stroke="black" stroke-width="1.5"/>
</g>
<defs>
<filter id="filter0_d_284_85" x="0.951904" y="0.7229" width="199.646" height="199.645" filterUnits="userSpaceOnUse" color-interpolation-filters="sRGB">
<feFlood flood-opacity="0" result="BackgroundImageFix"/>
<feColorMatrix in="SourceAlpha" type="matrix" values="0 0 0 0 0 0 0 0 0 0 0 0 0 0 0 0 0 0 127 0" result="hardAlpha"/>
<feOffset dx="-1" dy="2"/>
<feGaussianBlur stdDeviation="2.5"/>
<feComposite in2="hardAlpha" operator="out"/>
<feColorMatrix type="matrix" values="0 0 0 0 0 0 0 0 0 0 0 0 0 0 0 0 0 0 0.25 0"/>
<feBlend mode="normal" in2="BackgroundImageFix" result="effect1_dropShadow_284_85"/>
<feBlend mode="normal" in="SourceGraphic" in2="effect1_dropShadow_284_85" result="shape"/>
</filter>
</defs>
</svg>
